<?xml version="1.0" standalone="no"?>
<!DOCTYPE svg PUBLIC "-//W3C//DTD SVG 20010904//EN"
 "http://www.w3.org/TR/2001/REC-SVG-20010904/DTD/svg10.dtd">
<svg version="1.0" xmlns="http://www.w3.org/2000/svg"
 width="512.000000pt" height="512.000000pt" viewBox="0 0 512.000000 512.000000"
 preserveAspectRatio="xMidYMid meet">

<g transform="translate(0.000000,512.000000) scale(0.100000,-0.100000)"
fill="#000000" stroke="none">
<path d="M1921 4787 c-6 -8 -18 -33 -26 -57 -21 -59 -38 -76 -95 -95 -89 -30
-91 -63 -6 -96 63 -23 82 -42 102 -98 34 -93 59 -93 102 2 24 53 36 66 68 80
76 34 89 43 92 65 2 15 -4 24 -20 31 -105 41 -111 45 -134 96 -13 27 -24 55
-24 61 0 11 -22 24 -40 24 -4 0 -13 -6 -19 -13z"/>
<path d="M763 4694 c-6 -3 -22 -35 -34 -71 -30 -91 -68 -129 -154 -158 -115
-38 -123 -94 -19 -130 114 -40 141 -68 179 -183 12 -39 22 -53 40 -58 43 -11
63 4 81 59 28 86 53 123 103 150 25 14 61 28 79 32 42 9 62 30 62 66 0 31 -10
38 -112 74 -61 21 -100 67 -127 148 -25 73 -49 90 -98 71z"/>
<path d="M4283 4668 c-6 -7 -18 -38 -27 -69 -26 -90 -66 -127 -175 -160 -24
-7 -50 -23 -58 -36 -23 -34 2 -67 69 -88 104 -34 135 -65 168 -170 16 -51 37
-75 65 -75 27 0 51 26 61 65 13 57 53 123 86 143 18 11 56 27 85 36 61 20 76
35 71 72 -3 31 -11 36 -92 65 -82 30 -112 61 -144 149 -27 73 -29 75 -63 78
-21 2 -40 -2 -46 -10z"/>
<path d="M2521 4591 c-17 -17 -19 -42 -25 -232 -4 -118 -6 -403 -4 -633 l3
-419 27 -20 c23 -17 31 -18 57 -8 18 8 34 24 40 43 7 21 11 235 11 639 0 596
0 609 -20 629 -25 25 -64 26 -89 1z"/>
<path d="M3104 4445 c-98 -58 -99 -198 -3 -262 33 -21 47 -25 92 -21 65 5 100
29 128 86 68 138 -85 277 -217 197z"/>
<path d="M1240 4203 c-30 -11 -50 -37 -50 -64 0 -22 77 -122 360 -468 198
-242 369 -445 380 -451 48 -26 111 31 91 82 -13 33 -709 881 -735 895 -23 14
-25 14 -46 6z"/>
<path d="M3838 4203 c-17 -4 -711 -844 -736 -891 -27 -49 19 -111 72 -98 17 4
137 143 379 439 352 431 377 463 377 490 0 36 -53 70 -92 60z"/>
<path d="M937 3588 c-49 -29 -82 -94 -74 -150 15 -109 137 -171 231 -116 100
59 102 208 4 268 -44 27 -112 26 -161 -2z"/>
<path d="M4022 3590 c-101 -62 -96 -217 9 -270 71 -37 146 -19 195 45 36 48
40 128 8 172 -53 72 -144 94 -212 53z"/>
<path d="M1555 2683 c-429 -39 -791 -75 -803 -80 -18 -6 -62 -80 -183 -305
-87 -164 -159 -308 -159 -321 0 -53 -12 -51 750 -121 393 -36 729 -68 746 -71
21 -4 38 0 53 12 14 12 82 175 201 483 99 255 179 467 178 470 -2 3 -354 -27
-783 -67z"/>
<path d="M2780 2750 c0 -3 81 -215 180 -470 118 -307 187 -471 201 -482 15
-13 32 -16 58 -13 20 3 355 35 746 71 762 69 746 67 745 123 -1 30 -310 610
-332 622 -8 5 -357 40 -774 78 -417 39 -774 72 -791 74 -18 2 -33 0 -33 -3z"/>
<path d="M2296 1867 c-125 -322 -139 -347 -203 -363 -14 -4 -295 18 -625 48
-651 59 -647 59 -668 3 -6 -16 -10 -223 -10 -536 l0 -510 25 -24 c13 -14 31
-25 40 -25 22 0 1409 -128 1466 -136 39 -5 50 -2 73 18 l26 23 -2 905 -3 905
-119 -308z"/>
<path d="M2702 1265 l3 -908 25 -18 c24 -18 31 -18 230 1 113 11 428 40 700
65 272 25 524 48 560 52 48 5 70 12 87 29 l23 23 0 510 c0 313 -4 520 -10 536
-21 56 -17 56 -668 -3 -330 -30 -611 -52 -626 -48 -63 16 -80 47 -201 361 -64
165 -118 301 -121 304 -2 2 -3 -404 -2 -904z"/>
</g>
</svg>
